name C:/MyDriveSym/Projects/mobilecap/Data\Session20210823_0002\mocap\ForceDataProcessed\walking3_forces.mot
datacolumns 19
datarows 29
range 0.00000000 0.01400000
endheader 
time	R_ground_force_vx	R_ground_force_vy	R_ground_force_vz	R_ground_force_px	R_ground_force_py	R_ground_force_pz	R_ground_torque_x	R_ground_torque_y	R_ground_torque_z	L_ground_force_vx	L_ground_force_vy	L_ground_force_vz	L_ground_force_px	L_ground_force_py	L_ground_force_pz	L_ground_torque_x	L_ground_torque_y	L_ground_torque_z	
          0.00000000	        -26.95237400	        227.86904200	         -4.44312700	          0.16470000	          0.00600000	         -0.14093800	          0.00000000	         -0.25367800	          0.00000000	          0.00000000	          0.00000000	          0.00000000	          0.67258500	          0.00000000	         -0.22945800	          0.00000000	          0.00000000	          0.00000000	
          0.00050000	        -27.21890000	        228.97644400	         -4.53109800	          0.16470000	          0.00600000	         -0.14093800	          0.00000000	         -0.25195500	          0.00000000	          0.00000000	          0.00000000	          0.00000000	          0.67258500	          0.00000000	         -0.22945800	          0.00000000	          0.00000000	          0.00000000	
          0.00100000	        -27.48759300	        230.09255400	         -4.61943900	          0.16470000	          0.00600000	         -0.14093800	          0.00000000	         -0.25016200	          0.00000000	          0.00000000	          0.00000000	          0.00000000	          0.67258500	          0.00000000	         -0.22945800	          0.00000000	          0.00000000	          0.00000000	
          0.00150000	        -27.75845000	        231.21735100	         -4.70814200	          0.16470000	          0.00600000	         -0.14093800	          0.00000000	         -0.24829900	          0.00000000	          0.00000000	          0.00000000	          0.00000000	          0.67258500	          0.00000000	         -0.22945800	          0.00000000	          0.00000000	          0.00000000	
          0.00200000	        -28.03146500	        232.35081100	         -4.79720000	          0.16502000	          0.00600000	         -0.14091300	          0.00000000	         -0.24636600	          0.00000000	          0.00000000	          0.00000000	          0.00000000	          0.67258500	          0.00000000	         -0.22945800	          0.00000000	          0.00000000	          0.00000000	
          0.00250000	        -28.30663300	        233.49291200	         -4.88660600	          0.16534000	          0.00600000	         -0.14088800	          0.00000000	         -0.24436200	          0.00000000	          0.00000000	          0.00000000	          0.00000000	          0.67258500	          0.00000000	         -0.22945800	          0.00000000	          0.00000000	          0.00000000	
          0.00300000	        -28.58394700	        234.64362700	         -4.97635100	          0.16566000	          0.00600000	         -0.14086300	          0.00000000	         -0.24228600	          0.00000000	          0.00000000	          0.00000000	          0.00000000	          0.67258500	          0.00000000	         -0.22945800	          0.00000000	          0.00000000	          0.00000000	
          0.00350000	        -28.86340100	        235.80292900	         -5.06642900	          0.16598000	          0.00600000	         -0.14083900	          0.00000000	         -0.24013800	          0.00000000	          0.00000000	          0.00000000	          0.00000000	          0.67258500	          0.00000000	         -0.22945800	          0.00000000	          0.00000000	          0.00000000	
          0.00400000	        -29.14498800	        236.97079000	         -5.15683100	          0.16630000	          0.00600000	         -0.14081400	          0.00000000	         -0.23791800	          0.00000000	          0.00000000	          0.00000000	          0.00000000	          0.67258500	          0.00000000	         -0.22945800	          0.00000000	          0.00000000	          0.00000000	
          0.00450000	        -29.42870000	        238.14718000	         -5.24754800	          0.16662000	          0.00600000	         -0.14079000	          0.00000000	         -0.23562500	          0.00000000	          0.00000000	          0.00000000	          0.00000000	          0.67258500	          0.00000000	         -0.22945800	          0.00000000	          0.00000000	          0.00000000	
          0.00500000	        -29.71452800	        239.33206600	         -5.33857400	          0.16694000	          0.00600000	         -0.14076600	          0.00000000	         -0.23325800	          0.00000000	          0.00000000	          0.00000000	          0.00000000	          0.67258500	          0.00000000	         -0.22945800	          0.00000000	          0.00000000	          0.00000000	
          0.00550000	        -30.00246200	        240.52541600	         -5.42989900	          0.16726000	          0.00600000	         -0.14074200	          0.00000000	         -0.23081800	          0.00000000	          0.00000000	          0.00000000	          0.00000000	          0.67258500	          0.00000000	         -0.22945800	          0.00000000	          0.00000000	          0.00000000	
          0.00600000	        -30.29249400	        241.72719400	         -5.52151600	          0.16757900	          0.00600000	         -0.14071900	          0.00000000	         -0.22830400	          0.00000000	          0.00000000	          0.00000000	          0.00000000	          0.67258500	          0.00000000	         -0.22945800	          0.00000000	          0.00000000	          0.00000000	
          0.00650000	        -30.58461100	        242.93736500	         -5.61341500	          0.16789800	          0.00600000	         -0.14069500	          0.00000000	         -0.22571500	          0.00000000	          0.00000000	          0.00000000	          0.00000000	          0.67258500	          0.00000000	         -0.22945800	          0.00000000	          0.00000000	          0.00000000	
          0.00700000	        -30.87880300	        244.15589000	         -5.70558700	          0.16821800	          0.00600000	         -0.14067200	          0.00000000	         -0.22305200	          0.00000000	          0.00000000	          0.00000000	          0.00000000	          0.67258500	          0.00000000	         -0.22945800	          0.00000000	          0.00000000	          0.00000000	
          0.00750000	        -31.17505800	        245.38273000	         -5.79802500	          0.16853600	          0.00600000	         -0.14064900	          0.00000000	         -0.22031400	          0.00000000	          0.00000000	          0.00000000	          0.00000000	          0.67258500	          0.00000000	         -0.22945800	          0.00000000	          0.00000000	          0.00000000	
          0.00800000	        -31.47336300	        246.61784500	         -5.89071900	          0.16885500	          0.00600000	         -0.14062600	          0.00000000	         -0.21750000	          0.00000000	          0.00000000	          0.00000000	          0.00000000	          0.67258500	          0.00000000	         -0.22945800	          0.00000000	          0.00000000	          0.00000000	
          0.00850000	        -31.77370300	        247.86119100	         -5.98366100	          0.16917300	          0.00600000	         -0.14060300	          0.00000000	         -0.21461000	          0.00000000	          0.00000000	          0.00000000	          0.00000000	          0.67258500	          0.00000000	         -0.22945800	          0.00000000	          0.00000000	          0.00000000	
          0.00900000	        -32.07606500	        249.11272600	         -6.07684100	          0.16949100	          0.00600000	         -0.14058000	          0.00000000	         -0.21164400	          0.00000000	          0.00000000	          0.00000000	          0.00000000	          0.67258500	          0.00000000	         -0.22945800	          0.00000000	          0.00000000	          0.00000000	
          0.00950000	        -32.38043400	        250.37240300	         -6.17024900	          0.16980900	          0.00600000	         -0.14055800	          0.00000000	         -0.20860200	          0.00000000	          0.00000000	          0.00000000	          0.00000000	          0.67258500	          0.00000000	         -0.22945800	          0.00000000	          0.00000000	          0.00000000	
          0.01000000	        -32.68679400	        251.64017500	         -6.26387700	          0.17012600	          0.00600000	         -0.14053600	          0.00000000	         -0.20548400	          0.00000000	          0.00000000	          0.00000000	          0.00000000	          0.67258500	          0.00000000	         -0.22945800	          0.00000000	          0.00000000	          0.00000000	
          0.01050000	        -32.99512700	        252.91599500	         -6.35771600	          0.17044300	          0.00600000	         -0.14051400	          0.00000000	         -0.20228900	          0.00000000	          0.00000000	          0.00000000	          0.00000000	          0.67258500	          0.00000000	         -0.22945800	          0.00000000	          0.00000000	          0.00000000	
          0.01100000	        -33.30541800	        254.19981100	         -6.45175500	          0.17076000	          0.00600000	         -0.14049200	          0.00000000	         -0.19901600	          0.00000000	          0.00000000	          0.00000000	          0.00000000	          0.67258500	          0.00000000	         -0.22945800	          0.00000000	          0.00000000	          0.00000000	
          0.01150000	        -33.61764700	        255.49157300	         -6.54598600	          0.17107600	          0.00600000	         -0.14047100	          0.00000000	         -0.19566700	          0.00000000	          0.00000000	          0.00000000	          0.00000000	          0.67258500	          0.00000000	         -0.22945800	          0.00000000	          0.00000000	          0.00000000	
          0.01200000	        -33.93179600	        256.79122700	         -6.64039900	          0.17139200	          0.00600000	         -0.14044900	          0.00000000	         -0.19224000	          0.00000000	          0.00000000	          0.00000000	          0.00000000	          0.67258500	          0.00000000	         -0.22945800	          0.00000000	          0.00000000	          0.00000000	
          0.01250000	        -34.24784600	        258.09871800	         -6.73498400	          0.17170700	          0.00600000	         -0.14042800	          0.00000000	         -0.18873600	          0.00000000	          0.00000000	          0.00000000	          0.00000000	          0.67258500	          0.00000000	         -0.22945800	          0.00000000	          0.00000000	          0.00000000	
          0.01300000	        -34.56577600	        259.41399000	         -6.82973200	          0.17202100	          0.00600000	         -0.14040700	          0.00000000	         -0.18515400	          0.00000000	          0.00000000	          0.00000000	          0.00000000	          0.67258500	          0.00000000	         -0.22945800	          0.00000000	          0.00000000	          0.00000000	
          0.01350000	        -34.88556600	        260.73698600	         -6.92463200	          0.17233500	          0.00600000	         -0.14038600	          0.00000000	         -0.18149400	          0.00000000	          0.00000000	          0.00000000	          0.00000000	          0.67258500	          0.00000000	         -0.22945800	          0.00000000	          0.00000000	          0.00000000	
          0.01400000	        -35.20719400	        262.06764400	         -7.01967600	          0.17264900	          0.00600000	         -0.14036500	          0.00000000	         -0.17775700	          0.00000000	          0.00000000	          0.00000000	          0.00000000	          0.67258500	          0.00000000	         -0.22945800	          0.00000000	          0.00000000	          0.00000000	
